<?xml version="1.0" encoding="UTF-8"?>
<!DOCTYPE svg PUBLIC "-//W3C//DTD SVG 1.1//EN" "http://www.w3.org/Graphics/SVG/1.1/DTD/svg11.dtd">
<svg xmlns="http://www.w3.org/2000/svg" version="1.1" width="284px" height="286px" style="shape-rendering:geometricPrecision; text-rendering:geometricPrecision; image-rendering:optimizeQuality; fill-rule:evenodd; clip-rule:evenodd" xmlns:xlink="http://www.w3.org/1999/xlink">
<g><path style="opacity:1" fill="#fe4336" d="M 184.5,8.5 C 185.99,10.2798 187.99,10.9465 190.5,10.5C 192.553,10.4021 194.22,11.0687 195.5,12.5C 198.191,15.1768 201.525,16.5101 205.5,16.5C 206.995,16.9887 208.329,17.6554 209.5,18.5C 209.973,19.9063 210.973,20.573 212.5,20.5C 213.71,20.9321 214.71,21.5987 215.5,22.5C 217.146,25.9193 219.646,28.586 223,30.5C 223.333,30.1667 223.667,29.8333 224,29.5C 226.075,31.663 228.575,32.9964 231.5,33.5C 232.167,34.8333 233.167,35.8333 234.5,36.5C 234.833,36.5 235.167,36.5 235.5,36.5C 235.5,38.5 236.5,39.5 238.5,39.5C 238.343,40.8734 238.51,42.2068 239,43.5C 239.986,42.8288 241.153,42.8288 242.5,43.5C 244.094,46.7642 246.427,49.4309 249.5,51.5C 250.167,52.8333 251.167,53.8333 252.5,54.5C 253.08,56.7488 254.413,58.4154 256.5,59.5C 256.427,61.0269 257.094,62.0269 258.5,62.5C 258.455,65.0772 259.455,67.0772 261.5,68.5C 262.272,69.6935 263.272,70.6935 264.5,71.5C 265.338,71.8417 265.672,72.5084 265.5,73.5C 266.833,76.8333 268.167,80.1667 269.5,83.5C 269.803,87.2371 270.803,90.7371 272.5,94C 272.23,95.5143 271.897,97.0143 271.5,98.5C 273.391,100.117 274.724,102.117 275.5,104.5C 274.979,106.524 274.812,108.524 275,110.5C 275.308,109.692 275.808,109.025 276.5,108.5C 277.988,113.686 278.321,118.853 277.5,124C 279.995,126.916 281.162,130.416 281,134.5C 282.436,143.279 281.27,151.612 277.5,159.5C 277.996,161.471 278.33,163.471 278.5,165.5C 277.686,171.825 277.019,178.158 276.5,184.5C 263.929,225.072 238.263,254.072 199.5,271.5C 194.788,272.348 190.121,273.515 185.5,275C 182.225,276.806 178.891,278.306 175.5,279.5C 167.965,280.352 160.632,281.686 153.5,283.5C 149.535,284.054 145.535,284.387 141.5,284.5C 131.112,283.864 120.778,282.864 110.5,281.5C 108.22,279.777 105.553,279.111 102.5,279.5C 96.8221,276.57 90.8221,274.236 84.5,272.5C 83.2196,271.069 81.5529,270.402 79.5,270.5C 78.5084,270.672 77.8417,270.338 77.5,269.5C 77.0269,268.094 76.0269,267.427 74.5,267.5C 72.847,267.34 71.5137,266.674 70.5,265.5C 70.0269,264.094 69.0269,263.427 67.5,263.5C 67.0269,262.094 66.0269,261.427 64.5,261.5C 63.7377,259.738 62.4044,258.738 60.5,258.5C 59.5084,258.672 58.8417,258.338 58.5,257.5C 57.4154,255.413 55.7488,254.08 53.5,253.5C 50.1053,249.102 46.1053,245.436 41.5,242.5C 39.5181,238.854 36.8515,235.854 33.5,233.5C 31.3674,231.909 29.7007,229.909 28.5,227.5C 28.573,225.973 27.9063,224.973 26.5,224.5C 24.684,222.882 23.3507,220.882 22.5,218.5C 22.573,216.973 21.9063,215.973 20.5,215.5C 15.6937,208.107 12.027,200.107 9.5,191.5C 10.9617,188.358 10.295,186.358 7.5,185.5C -3.90752,148.163 -0.574191,112.163 17.5,77.5C 18.9063,77.0269 19.573,76.0269 19.5,74.5C 19.6596,72.847 20.3263,71.5137 21.5,70.5C 22.9063,70.0269 23.573,69.0269 23.5,67.5C 24.9063,67.0269 25.573,66.0269 25.5,64.5C 27.9354,63.7298 29.2687,62.0632 29.5,59.5C 29.427,57.9731 30.0937,56.9731 31.5,56.5C 33.2624,55.7377 34.2624,54.4044 34.5,52.5C 34.8333,51.5 35.5,50.8333 36.5,50.5C 37.5,50.1667 38.1667,49.5 38.5,48.5C 39.1667,47.1667 40.1667,46.1667 41.5,45.5C 42.5,45.1667 43.1667,44.5 43.5,43.5C 44.1667,42.1667 45.1667,41.1667 46.5,40.5C 47.5,40.1667 48.1667,39.5 48.5,38.5C 49.5,36.8333 50.8333,35.5 52.5,34.5C 55.8311,34.1694 58.1644,32.5027 59.5,29.5C 61.4044,29.2624 62.7377,28.2624 63.5,26.5C 64.6594,24.7497 66.326,23.7497 68.5,23.5C 71.5221,23.6581 73.5221,22.3248 74.5,19.5C 78.4156,16.7105 82.749,14.7105 87.5,13.5C 90.4815,13.8176 92.8148,12.8176 94.5,10.5C 124.283,-0.570345 154.283,-1.23701 184.5,8.5 Z"/></g>
<g><path style="opacity:1" fill="#f5998c" d="M 184.5,8.5 C 186.786,8.59495 188.786,9.26162 190.5,10.5C 187.99,10.9465 185.99,10.2798 184.5,8.5 Z"/></g>
<g><path style="opacity:1" fill="#fb8f7e" d="M 94.5,10.5 C 92.8148,12.8176 90.4815,13.8176 87.5,13.5C 89.6036,12.0883 91.9369,11.0883 94.5,10.5 Z"/></g>
<g><path style="opacity:1" fill="#fba99d" d="M 195.5,12.5 C 199.137,13.2635 202.47,14.5968 205.5,16.5C 201.525,16.5101 198.191,15.1768 195.5,12.5 Z"/></g>
<g><path style="opacity:0.004" fill="#fdf3f2" d="M 209.5,18.5 C 211.027,18.427 212.027,19.0937 212.5,20.5C 210.973,20.573 209.973,19.9063 209.5,18.5 Z"/></g>
<g><path style="opacity:1" fill="#ff8375" d="M 74.5,19.5 C 73.5221,22.3248 71.5221,23.6581 68.5,23.5C 70.2228,21.7819 72.2228,20.4486 74.5,19.5 Z"/></g>
<g><path style="opacity:0.076" fill="#faeced" d="M 219.5,24.5 C 221.027,24.427 222.027,25.0937 222.5,26.5C 220.973,26.573 219.973,25.9063 219.5,24.5 Z"/></g>
<g><path style="opacity:0.8" fill="#ffaca7" d="M 63.5,26.5 C 62.7377,28.2624 61.4044,29.2624 59.5,29.5C 60.2623,27.7376 61.5956,26.7376 63.5,26.5 Z"/></g>
<g><path style="opacity:1" fill="#fc7063" d="M 215.5,22.5 C 217.153,22.6596 218.486,23.3263 219.5,24.5C 219.973,25.9063 220.973,26.573 222.5,26.5C 225.81,28.4821 228.81,30.8154 231.5,33.5C 228.575,32.9964 226.075,31.663 224,29.5C 223.667,29.8333 223.333,30.1667 223,30.5C 219.646,28.586 217.146,25.9193 215.5,22.5 Z"/></g>
<g><path style="opacity:0.995" fill="#ff9185" d="M 59.5,29.5 C 58.1644,32.5027 55.8311,34.1694 52.5,34.5C 54.5496,32.4525 56.883,30.7859 59.5,29.5 Z"/></g>
<g><path style="opacity:0.004" fill="#f8ebe9" d="M 231.5,33.5 C 233.5,33.5 234.5,34.5 234.5,36.5C 233.167,35.8333 232.167,34.8333 231.5,33.5 Z"/></g>
<g><path style="opacity:0.827" fill="#f0bcb9" d="M 235.5,36.5 C 236.833,37.1667 237.833,38.1667 238.5,39.5C 236.5,39.5 235.5,38.5 235.5,36.5 Z"/></g>
<g><path style="opacity:0.38" fill="#fee8e7" d="M 48.5,38.5 C 48.1667,39.5 47.5,40.1667 46.5,40.5C 46.5,39.1667 47.1667,38.5 48.5,38.5 Z"/></g>
<g><path style="opacity:1" fill="#f5867a" d="M 238.5,39.5 C 240.167,40.5 241.5,41.8333 242.5,43.5C 241.153,42.8288 239.986,42.8288 239,43.5C 238.51,42.2068 238.343,40.8734 238.5,39.5 Z"/></g>
<g><path style="opacity:0.643" fill="#fdc7c2" d="M 43.5,43.5 C 43.1667,44.5 42.5,45.1667 41.5,45.5C 41.5,44.1667 42.1667,43.5 43.5,43.5 Z"/></g>
<g><path style="opacity:0.886" fill="#eeb8b1" d="M 242.5,43.5 C 245.573,45.5691 247.906,48.2358 249.5,51.5C 246.427,49.4309 244.094,46.7642 242.5,43.5 Z"/></g>
<g><path style="opacity:0.373" fill="#fce8e7" d="M 38.5,48.5 C 38.1667,49.5 37.5,50.1667 36.5,50.5C 36.5,49.1667 37.1667,48.5 38.5,48.5 Z"/></g>
<g><path style="opacity:0.096" fill="#fdf8f8" d="M 249.5,51.5 C 251.5,51.5 252.5,52.5 252.5,54.5C 251.167,53.8333 250.167,52.8333 249.5,51.5 Z"/></g>
<g><path style="opacity:0.859" fill="#fdbab5" d="M 34.5,52.5 C 34.2624,54.4044 33.2624,55.7377 31.5,56.5C 31.7376,54.5956 32.7376,53.2623 34.5,52.5 Z"/></g>
<g><path style="opacity:0.061" fill="#fbe8e6" d="M 252.5,54.5 C 254.587,55.5846 255.92,57.2512 256.5,59.5C 254.413,58.4154 253.08,56.7488 252.5,54.5 Z"/></g>
<g><path style="opacity:0.143" fill="#fcf2f1" d="M 256.5,59.5 C 257.906,59.9731 258.573,60.9731 258.5,62.5C 257.094,62.0269 256.427,61.0269 256.5,59.5 Z"/></g>
<g><path style="opacity:1" fill="#ff8b7c" d="M 29.5,59.5 C 29.2687,62.0632 27.9354,63.7298 25.5,64.5C 26.0798,62.2512 27.4131,60.5846 29.5,59.5 Z"/></g>
<g><path style="opacity:1" fill="#f39183" d="M 258.5,62.5 C 259.878,63.5451 260.878,64.8784 261.5,66.5C 261.5,67.1667 261.5,67.8333 261.5,68.5C 259.455,67.0772 258.455,65.0772 258.5,62.5 Z"/></g>
<g><path style="opacity:0.569" fill="#fbcac6" d="M 25.5,64.5 C 25.573,66.0269 24.9063,67.0269 23.5,67.5C 23.427,65.9731 24.0937,64.9731 25.5,64.5 Z"/></g>
<g><path style="opacity:0.088" fill="#fdf8f7" d="M 261.5,66.5 C 263.25,67.6594 264.25,69.326 264.5,71.5C 263.272,70.6935 262.272,69.6935 261.5,68.5C 261.5,67.8333 261.5,67.1667 261.5,66.5 Z"/></g>
<g><path style="opacity:1" fill="#e05148" d="M 102.5,72.5 C 97.4717,68.8678 92.1383,68.5345 86.5,71.5C 90.793,66.9349 95.793,66.2682 101.5,69.5C 102.386,70.325 102.719,71.325 102.5,72.5 Z"/></g>
<g><path style="opacity:0.294" fill="#fdddd9" d="M 23.5,67.5 C 23.573,69.0269 22.9063,70.0269 21.5,70.5C 21.427,68.9731 22.0937,67.9731 23.5,67.5 Z"/></g>
<g><path style="opacity:1" fill="#fdfbfb" d="M 102.5,72.5 C 106.788,79.4116 110.288,86.745 113,94.5C 118.823,114.794 124.49,135.127 130,155.5C 132.057,162.112 134.557,168.446 137.5,174.5C 141.335,185.361 148.668,189.028 159.5,185.5C 164.895,184.296 169.895,182.296 174.5,179.5C 180.692,176.956 186.359,173.623 191.5,169.5C 195.135,166.341 198.802,163.174 202.5,160C 204.473,159.505 206.473,159.338 208.5,159.5C 209.167,160.833 210.167,161.833 211.5,162.5C 215.499,169.495 215.499,176.495 211.5,183.5C 206.697,189.135 201.363,194.302 195.5,199C 185.14,205.015 174.473,210.182 163.5,214.5C 153.467,217.096 143.467,217.096 133.5,214.5C 131.5,211.833 129.167,209.5 126.5,207.5C 124.753,203.009 122.753,198.675 120.5,194.5C 118.131,182.651 115.131,170.984 111.5,159.5C 110.943,154.835 109.61,150.502 107.5,146.5C 103.674,132.534 98.1742,119.201 91,106.5C 86.6256,100.625 81.4589,95.6247 75.5,91.5C 75.1203,87.4291 76.1203,83.7624 78.5,80.5C 81.1667,77.5 83.8333,74.5 86.5,71.5C 92.1383,68.5345 97.4717,68.8678 102.5,72.5 Z"/></g>
<g><path style="opacity:0.624" fill="#fbbeb9" d="M 19.5,74.5 C 19.573,76.0269 18.9063,77.0269 17.5,77.5C 17.427,75.9731 18.0937,74.9731 19.5,74.5 Z"/></g>
<g><path style="opacity:0.047" fill="#fcf1f0" d="M 265.5,73.5 C 269.818,79.1382 272.818,85.4715 274.5,92.5C 273.023,89.4086 271.356,86.4086 269.5,83.5C 268.167,80.1667 266.833,76.8333 265.5,73.5 Z"/></g>
<g><path style="opacity:1" fill="#e15651" d="M 78.5,80.5 C 76.1203,83.7624 75.1203,87.4291 75.5,91.5C 74.3659,89.0336 74.1993,86.367 75,83.5C 75.7589,81.9371 76.9256,80.9371 78.5,80.5 Z"/></g>
<g><path style="opacity:0.047" fill="#fbf0ef" d="M 274.5,92.5 C 276.267,94.7916 277.267,97.4582 277.5,100.5C 275.733,98.2084 274.733,95.5418 274.5,92.5 Z"/></g>
<g><path style="opacity:0.202" fill="#fcedeb" d="M 279.5,108.5 C 281.563,112.635 282.896,116.969 283.5,121.5C 283.5,125.5 283.5,129.5 283.5,133.5C 281.73,125.374 280.397,117.041 279.5,108.5 Z"/></g>
<g><path style="opacity:1" fill="#f15545" d="M 269.5,83.5 C 271.356,86.4086 273.023,89.4086 274.5,92.5C 274.733,95.5418 275.733,98.2084 277.5,100.5C 278.768,102.905 279.435,105.572 279.5,108.5C 280.397,117.041 281.73,125.374 283.5,133.5C 283.5,139.5 283.5,145.5 283.5,151.5C 282.38,158.697 281.213,166.031 280,173.5C 278.966,177.333 277.8,180.999 276.5,184.5C 277.019,178.158 277.686,171.825 278.5,165.5C 278.33,163.471 277.996,161.471 277.5,159.5C 281.27,151.612 282.436,143.279 281,134.5C 281.162,130.416 279.995,126.916 277.5,124C 278.321,118.853 277.988,113.686 276.5,108.5C 275.808,109.025 275.308,109.692 275,110.5C 274.812,108.524 274.979,106.524 275.5,104.5C 274.724,102.117 273.391,100.117 271.5,98.5C 271.897,97.0143 272.23,95.5143 272.5,94C 270.803,90.7371 269.803,87.2371 269.5,83.5 Z"/></g>
<g><path style="opacity:1" fill="#df534e" d="M 107.5,146.5 C 109.61,150.502 110.943,154.835 111.5,159.5C 109.39,155.498 108.057,151.165 107.5,146.5 Z"/></g>
<g><path style="opacity:1" fill="#ef4d43" d="M 208.5,159.5 C 206.473,159.338 204.473,159.505 202.5,160C 198.802,163.174 195.135,166.341 191.5,169.5C 190.721,166.925 190.887,164.592 192,162.5C 192.308,163.308 192.808,163.975 193.5,164.5C 194.817,162.841 196.483,161.674 198.5,161C 195.833,160.333 195.833,159.667 198.5,159C 197.672,158.085 196.672,157.419 195.5,157C 199.462,157.105 203.462,157.439 207.5,158C 208.056,158.383 208.389,158.883 208.5,159.5 Z"/></g>
<g><path style="opacity:1" fill="#e44d44" d="M 211.5,162.5 C 212.376,162.369 213.043,162.702 213.5,163.5C 217.269,169.774 217.435,176.107 214,182.5C 213.329,183.252 212.496,183.586 211.5,183.5C 215.499,176.495 215.499,169.495 211.5,162.5 Z"/></g>
<g><path style="opacity:1" fill="#e74f46" d="M 191.5,169.5 C 186.359,173.623 180.692,176.956 174.5,179.5C 177.312,177.078 180.145,174.744 183,172.5C 183.333,172.833 183.667,173.167 184,173.5C 184.309,172.234 184.809,171.067 185.5,170C 187.473,169.505 189.473,169.338 191.5,169.5 Z"/></g>
<g><path style="opacity:1" fill="#e15046" d="M 137.5,174.5 C 140.716,178.171 144.05,181.671 147.5,185C 151.486,185.499 155.486,185.666 159.5,185.5C 148.668,189.028 141.335,185.361 137.5,174.5 Z"/></g>
<g><path style="opacity:1" fill="#fc9483" d="M 7.5,185.5 C 10.295,186.358 10.9617,188.358 9.5,191.5C 8.26162,189.786 7.59495,187.786 7.5,185.5 Z"/></g>
<g><path style="opacity:1" fill="#de574e" d="M 120.5,194.5 C 122.753,198.675 124.753,203.009 126.5,207.5C 122.642,204.112 120.642,199.778 120.5,194.5 Z"/></g>
<g><path style="opacity:0.094" fill="#fcecea" d="M 20.5,215.5 C 21.9063,215.973 22.573,216.973 22.5,218.5C 21.0937,218.027 20.427,217.027 20.5,215.5 Z"/></g>
<g><path style="opacity:1" fill="#e05249" d="M 133.5,214.5 C 143.467,217.096 153.467,217.096 163.5,214.5C 162.192,215.232 160.858,216.066 159.5,217C 152.167,217.667 144.833,217.667 137.5,217C 135.934,216.392 134.6,215.558 133.5,214.5 Z"/></g>
<g><path style="opacity:0.275" fill="#fdf2f2" d="M 283.5,151.5 C 283.5,156.167 283.5,160.833 283.5,165.5C 271.689,222.477 238.356,260.643 183.5,280C 174.137,282.44 164.804,284.273 155.5,285.5C 146.833,285.5 138.167,285.5 129.5,285.5C 123.073,284.681 116.739,283.348 110.5,281.5C 120.778,282.864 131.112,283.864 141.5,284.5C 145.535,284.387 149.535,284.054 153.5,283.5C 161.202,283.461 168.536,282.128 175.5,279.5C 183.958,277.923 191.958,275.257 199.5,271.5C 238.263,254.072 263.929,225.072 276.5,184.5C 277.8,180.999 278.966,177.333 280,173.5C 281.213,166.031 282.38,158.697 283.5,151.5 Z"/></g>
<g><path style="opacity:0.008" fill="#f9e1df" d="M 26.5,224.5 C 27.9063,224.973 28.573,225.973 28.5,227.5C 27.0937,227.027 26.427,226.027 26.5,224.5 Z"/></g>
<g><path style="opacity:1" fill="#f6b8b0" d="M 33.5,233.5 C 36.8515,235.854 39.5181,238.854 41.5,242.5C 38.1195,240.12 35.4528,237.12 33.5,233.5 Z"/></g>
<g><path style="opacity:0.875" fill="#f3c7c3" d="M 41.5,242.5 C 46.1053,245.436 50.1053,249.102 53.5,253.5C 48.8947,250.564 44.8947,246.898 41.5,242.5 Z"/></g>
<g><path style="opacity:0.098" fill="#fbe7e6" d="M 53.5,253.5 C 55.7488,254.08 57.4154,255.413 58.5,257.5C 56.2512,256.92 54.5846,255.587 53.5,253.5 Z"/></g>
<g><path style="opacity:0.878" fill="#f4bdbc" d="M 60.5,258.5 C 62.4044,258.738 63.7377,259.738 64.5,261.5C 62.5956,261.262 61.2623,260.262 60.5,258.5 Z"/></g>
<g><path style="opacity:0.384" fill="#fbeaea" d="M 64.5,261.5 C 66.0269,261.427 67.0269,262.094 67.5,263.5C 65.9731,263.573 64.9731,262.906 64.5,261.5 Z"/></g>
<g><path style="opacity:0.067" fill="#fef9f9" d="M 67.5,263.5 C 69.0269,263.427 70.0269,264.094 70.5,265.5C 68.9731,265.573 67.9731,264.906 67.5,263.5 Z"/></g>
<g><path style="opacity:0.049" fill="#fefaf9" d="M 74.5,267.5 C 76.0269,267.427 77.0269,268.094 77.5,269.5C 75.9731,269.573 74.9731,268.906 74.5,267.5 Z"/></g>
<g><path style="opacity:0.12" fill="#fdf7f7" d="M 79.5,270.5 C 81.5529,270.402 83.2196,271.069 84.5,272.5C 82.4471,272.598 80.7804,271.931 79.5,270.5 Z"/></g>
<g><path style="opacity:0.075" fill="#fcf1f0" d="M 84.5,272.5 C 90.8221,274.236 96.8221,276.57 102.5,279.5C 95.9469,278.321 89.9469,275.987 84.5,272.5 Z"/></g>
<g><path style="opacity:1" fill="#e65249" d="M 199.5,271.5 C 191.958,275.257 183.958,277.923 175.5,279.5C 178.891,278.306 182.225,276.806 185.5,275C 190.121,273.515 194.788,272.348 199.5,271.5 Z"/></g>
<g><path style="opacity:0.184" fill="#fbebea" d="M 102.5,279.5 C 105.553,279.111 108.22,279.777 110.5,281.5C 107.505,281.706 104.838,281.04 102.5,279.5 Z"/></g>
<g><path style="opacity:1" fill="#e85a4d" d="M 175.5,279.5 C 168.536,282.128 161.202,283.461 153.5,283.5C 160.632,281.686 167.965,280.352 175.5,279.5 Z"/></g>
</svg>
